<svg width="900" height="500" viewBox="0 0 900 500" xmlns="http://www.w3.org/2000/svg">
  <style>
    .main-title { font-family: 'SF Pro Display', 'Segoe UI', 'Roboto', sans-serif; font-size: 24px; font-weight: 700; fill: #1F2937; text-anchor: middle; }
    .section-title { font-family: 'SF Pro Display', 'Segoe UI', 'Roboto', sans-serif; font-size: 16px; font-weight: 600; fill: #374151; text-anchor: middle; }
    .body-text { font-family: 'SF Pro Text', 'Segoe UI', 'Roboto', sans-serif; font-size: 14px; font-weight: 500; fill: #1F2937; text-anchor: middle; }
    .highlight-text { font-family: 'SF Pro Text', 'Segoe UI', 'Roboto', sans-serif; font-size: 14px; font-weight: 600; fill: #059669; text-anchor: middle; }
    .note-text { font-family: 'SF Pro Text', 'Segoe UI', 'Roboto', sans-serif; font-size: 12px; fill: #6B7280; text-anchor: middle; }
    .security-text { font-family: 'SF Pro Text', 'Segoe UI', 'Roboto', sans-serif; font-size: 12px; font-weight: 600; fill: #DC2626; text-anchor: middle; }
    .flow-text { font-family: 'SF Pro Text', 'Segoe UI', 'Roboto', sans-serif; font-size: 11px; fill: #4B5563; text-anchor: middle; }

    .device-bg { fill: #F3F4F6; stroke: #D1D5DB; stroke-width: 2; rx: 12; }
    .server-bg { fill: #EFF6FF; stroke: #DBEAFE; stroke-width: 2; rx: 12; }
    .cloud-bg { fill: #F0FDF4; stroke: #DCFCE7; stroke-width: 2; rx: 12; }

    .secure-arrow { stroke: #059669; stroke-width: 2.5; fill: none; stroke-dasharray: none; }
    .data-arrow { stroke: #3B82F6; stroke-width: 2; fill: none; }
    .arrow-head-secure { fill: #059669; }
    .arrow-head-data { fill: #3B82F6; }

    .security-icon { fill: #10B981; }
    .warning-icon { fill: #F59E0B; }
    .shield-icon { fill: #059669; }
  </style>

  <defs>
    <!-- Security arrow marker -->
    <marker id="arrowhead-secure" viewBox="0 0 12 12" refX="9" refY="6" markerWidth="8" markerHeight="8" orient="auto">
      <path d="M 2 2 L 10 6 L 2 10 z" class="arrow-head-secure" />
    </marker>

    <!-- Data arrow marker -->
    <marker id="arrowhead-data" viewBox="0 0 12 12" refX="9" refY="6" markerWidth="8" markerHeight="8" orient="auto">
      <path d="M 2 2 L 10 6 L 2 10 z" class="arrow-head-data" />
    </marker>

    <!-- Security patterns -->
    <pattern id="securePattern" patternUnits="userSpaceOnUse" width="4" height="4">
      <rect width="4" height="4" fill="#F0FDF4"/>
      <path d="M 0,4 l 4,-4 M -1,1 l 2,-2 M 3,5 l 2,-2" stroke="#DCFCE7" stroke-width="0.5"/>
    </pattern>
  </defs>

  <!-- Title -->
  <text x="450" y="35" class="main-title">Архитектура защиты данных</text>

  <!-- Background zones -->
  <rect x="50" y="80" width="200" height="300" class="device-bg" />
  <rect x="300" y="80" width="200" height="180" class="server-bg" />
  <rect x="650" y="80" width="200" height="300" class="cloud-bg" />

  <!-- Zone labels -->
  <text x="150" y="100" class="section-title">Локальное устройство</text>
  <text x="400" y="100" class="section-title">Сервера компании</text>
  <text x="750" y="100" class="section-title">Защищенная зона</text>

  <!-- Therapist Device -->
  <g id="therapist-device">
    <!-- Device icon with more detail -->
    <g transform="translate(120, 180)">
      <!-- Screen -->
      <rect x="10" y="5" width="40" height="25" rx="2" fill="#1F2937" stroke="#374151" stroke-width="1.5"/>
      <rect x="12" y="7" width="36" height="21" rx="1" fill="#6366F1"/>
      <!-- Base -->
      <rect x="5" y="30" width="50" height="8" rx="4" fill="#9CA3AF"/>
      <!-- Keyboard -->
      <rect x="0" y="40" width="60" height="20" rx="3" fill="#F3F4F6" stroke="#D1D5DB"/>
      <circle cx="15" cy="50" r="2" fill="#6B7280"/>
      <circle cx="25" cy="50" r="2" fill="#6B7280"/>
      <circle cx="35" cy="50" r="2" fill="#6B7280"/>
      <circle cx="45" cy="50" r="2" fill="#6B7280"/>
    </g>

    <!-- Security indicator -->
    <g transform="translate(140, 140)">
      <circle cx="0" cy="0" r="8" fill="#DCFCE7" stroke="#059669" stroke-width="2"/>
      <path d="M-4,-2 L-1,2 L4,-4" stroke="#059669" stroke-width="2" fill="none"/>
    </g>

    <text x="150" y="130" class="body-text">Устройство терапевта</text>
    <text x="150" y="270" class="highlight-text">✓ Локальная запись</text>
    <text x="150" y="290" class="highlight-text">✓ Временное хранение</text>
    <text x="150" y="310" class="note-text">Данные не остаются</text>
    <text x="150" y="325" class="note-text">на устройстве</text>
  </g>

  <!-- Company Server -->
  <g id="company-server">
    <!-- Server icon -->
    <g transform="translate(370, 140)">
      <rect x="0" y="0" width="60" height="40" rx="4" fill="#EFF6FF" stroke="#3B82F6" stroke-width="2"/>
      <rect x="5" y="8" width="50" height="3" rx="1" fill="#3B82F6"/>
      <rect x="5" y="15" width="30" height="3" rx="1" fill="#93C5FD"/>
      <rect x="40" y="15" width="15" height="3" rx="1" fill="#60A5FA"/>
      <rect x="5" y="22" width="50" height="3" rx="1" fill="#3B82F6"/>
      <rect x="5" y="29" width="20" height="3" rx="1" fill="#93C5FD"/>
      <circle cx="50" cy="30" r="3" fill="#10B981"/>
    </g>

    <text x="400" y="130" class="body-text">Сервера компании</text>
    <text x="400" y="200" class="body-text">Только метаданные:</text>
    <text x="400" y="220" class="note-text">• Email терапевта</text>
    <text x="400" y="235" class="note-text">• Данные оплаты</text>
    <text x="400" y="250" class="security-text">⚠ Никаких записей сессий</text>
  </g>

  <!-- AI Provider (Yandex Cloud) -->
  <g id="ai-provider">
    <!-- Cloud with security -->
    <g transform="translate(720, 160)">
      <!-- Main cloud -->
      <path d="M10 25 C5 25, 0 20, 0 15 C0 10, 5 5, 10 5 C12 2, 18 2, 20 5 C25 5, 30 10, 30 15 C30 20, 25 25, 20 25 Z"
            fill="url(#securePattern)" stroke="#059669" stroke-width="2"/>
      <!-- Shield overlay -->
      <g transform="translate(12, 12)">
        <path d="M3 1 L3 1 C3 1, 0 2, 0 5 C0 8, 3 11, 3 11 S6 8, 6 5 C6 2, 3 1, 3 1 Z"
              class="shield-icon" stroke="#047857" stroke-width="0.5"/>
        <path d="M1.5 4.5 L2.5 5.5 L4.5 3" stroke="#047857" stroke-width="0.8" fill="none"/>
      </g>
    </g>

    <text x="750" y="140" class="body-text">ИИ Провайдер</text>
    <text x="750" y="155" class="highlight-text">Яндекс Облако</text>
    <text x="750" y="230" class="highlight-text">✓ Анализ сессий</text>
    <text x="750" y="250" class="highlight-text">✓ Обработка в РФ</text>
    <text x="750" y="270" class="highlight-text">✓ Полное шифрование</text>
    <text x="750" y="300" class="security-text">🔒 Данные не покидают РФ</text>
  </g>

  <!-- Data Flow Arrows -->

  <!-- Device to Cloud (secure direct) -->
  <path d="M250 240 Q 350 200, 450 200 Q 550 200, 650 220"
        class="secure-arrow" marker-end="url(#arrowhead-secure)"/>
  <text x="450" y="185" class="flow-text">Прямая защищенная передача</text>

  <!-- Cloud to Device (results) -->
  <path d="M650 260 Q 550 280, 450 280 Q 350 280, 250 260"
        class="data-arrow" marker-end="url(#arrowhead-data)"/>
  <text x="450" y="300" class="flow-text">Результаты анализа</text>

  <!-- Device to Company (metadata only) -->
  <path d="M250 200 L 300 180" class="data-arrow" marker-end="url(#arrowhead-data)"/>
  <text x="275" y="185" class="flow-text">Метаданные</text>

  <!-- Legend -->
  <g id="legend" transform="translate(50, 420)">
    <rect x="0" y="0" width="800" height="60" fill="#F9FAFB" stroke="#E5E7EB" rx="8"/>
    <text x="20" y="20" class="section-title">Принципы безопасности:</text>

    <!-- Secure flow -->
    <line x1="20" y1="35" x2="40" y2="35" class="secure-arrow"/>
    <text x="50" y="40" class="flow-text">Защищенная передача данных</text>

    <!-- Data flow -->
    <line x1="200" y1="35" x2="220" y2="35" class="data-arrow"/>
    <text x="230" y="40" class="flow-text">Передача метаданных</text>

    <!-- Security note -->
    <text x="400" y="35" class="security-text">🔒 End-to-end шифрование</text>
    <text x="400" y="50" class="security-text">🛡️ Соответствие 152-ФЗ</text>
  </g>
</svg>
